<svg width="19" height="18" viewBox="0 0 19 18" fill="none" xmlns="http://www.w3.org/2000/svg">
<path d="M13 9.85814C13 10.3882 12.7907 10.8122 12.4767 11.2362L7.87165 16.6422C7.66233 16.9602 7.24369 17.0662 6.82505 16.9602C6.40641 16.8542 6.19709 16.6422 5.98777 16.2182L5.77845 15.6882C5.56913 15.1582 5.67379 14.5222 5.88311 14.0982L7.76699 10.6002H2.01069C1.69671 10.6002 1.38273 10.3882 1.17341 10.1761C0.964086 9.96415 0.964086 9.54014 1.06875 9.22214L4.10389 1.37802C4.41787 0.530008 5.15049 0 6.09243 0H11.9534C12.5814 0 13 0.424006 13 1.06002V9.85814Z" fill="#8A8A8A" stroke="#8A8A8A" stroke-linejoin="round"/>
<path d="M15 9.9C15 10.56 15.4 11 16 11H18V0H16C15.4 0 15 0.44 15 1.1V9.9Z" fill="#8A8A8A" stroke="#8A8A8A" stroke-linejoin="round"/>
</svg>
