<svg width="19" height="19" viewBox="0 0 19 19" fill="none" xmlns="http://www.w3.org/2000/svg">
<path d="M6.29407 8.15335C6.29407 7.62394 6.50583 7.20041 6.82348 6.77688L11.4823 1.37688C11.6941 1.05924 12.1176 0.953355 12.5411 1.05924C12.9647 1.16512 13.1764 1.37688 13.3882 1.80041L13.5999 2.32983C13.8117 2.85924 13.7058 3.49453 13.4941 3.91806L11.5882 7.41218H17.4117C17.7294 7.41218 18.047 7.62394 18.2588 7.83571C18.4705 8.15335 18.4705 8.471 18.3647 8.78865L15.2941 16.6239C14.9764 17.471 14.2352 18.0004 13.2823 18.0004H7.35289C6.7176 18.0004 6.29407 17.5769 6.29407 16.9416V8.15335Z" fill="#9EC74A" stroke="#9EC74A"/>
<path d="M4.17647 8.47093C4.17647 7.83564 3.75294 7.41211 3.11765 7.41211H1V18.0003H3.11765C3.75294 18.0003 4.17647 17.5768 4.17647 16.9415V8.47093Z" fill="#9EC74A" stroke="#9EC74A"/>
</svg>
